<?xml version="1.0" encoding="iso-8859-1"?>
<!-- Generator: Adobe Illustrator 21.0.0, SVG Export Plug-In . SVG Version: 6.00 Build 0)  -->
<svg version="1.1" id="Layer_1" xmlns="http://www.w3.org/2000/svg" xmlns:xlink="http://www.w3.org/1999/xlink" x="0px" y="0px"
	 viewBox="0 0 32 32" style="enable-background:new 0 0 32 32;" xml:space="preserve">
<g>
	<path style="fill:#FFFFFF;" d="M27.311,4.689C24.294,1.665,20.271,0,16,0S7.706,1.665,4.689,4.689C1.672,7.713,0,11.729,0,16
		s1.665,8.294,4.689,11.311C7.713,30.328,11.729,32,16,32s8.294-1.665,11.311-4.689C30.328,24.287,32,20.271,32,16
		S30.335,7.706,27.311,4.689L27.311,4.689z M30.55,15.282h-6.204c-0.059-2.468-0.405-4.846-1.012-6.955
		c1.182-0.607,2.286-1.372,3.298-2.273C28.917,8.496,30.374,11.723,30.55,15.282L30.55,15.282z M16.718,16.718h6.197
		c-0.052,2.273-0.366,4.447-0.908,6.393c-1.672-0.673-3.455-1.065-5.29-1.15V16.718z M25.6,5.055
		c-0.836,0.738-1.75,1.365-2.717,1.887c-0.248-0.692-0.529-1.345-0.842-1.959c-0.621-1.228-1.326-2.233-2.103-3.004
		C22.06,2.573,23.987,3.637,25.6,5.055L25.6,5.055z M16.718,1.659c1.496,0.333,2.906,1.711,4.042,3.958
		c0.307,0.607,0.581,1.254,0.823,1.939c-1.534,0.634-3.174,1.006-4.865,1.091V1.659z M22.015,8.934
		c0.535,1.933,0.842,4.095,0.895,6.354h-6.191V10.09C18.56,10.005,20.343,9.607,22.015,8.934L22.015,8.934z M15.282,15.282H9.084
		c0.052-2.26,0.359-4.421,0.894-6.354c1.672,0.679,3.461,1.071,5.297,1.15v5.205H15.282z M15.288,1.659v6.988
		c-1.692-0.085-3.337-0.457-4.865-1.091c0.242-0.686,0.516-1.332,0.823-1.939C12.382,3.37,13.793,1.992,15.288,1.659L15.288,1.659z
		 M12.069,1.979c-0.777,0.771-1.482,1.783-2.103,3.004C9.659,5.597,9.378,6.25,9.123,6.942C8.157,6.42,7.249,5.793,6.407,5.055
		C8.019,3.637,9.946,2.573,12.069,1.979L12.069,1.979z M5.375,6.054c1.012,0.901,2.116,1.659,3.298,2.273
		c-0.607,2.116-0.96,4.487-1.012,6.955H1.456C1.633,11.723,3.089,8.496,5.375,6.054L5.375,6.054z M1.456,16.718H7.66
		c0.059,2.488,0.411,4.872,1.025,6.994c-1.175,0.608-2.279,1.358-3.285,2.26C3.096,23.523,1.633,20.291,1.456,16.718L1.456,16.718z
		 M6.433,26.971c0.836-0.731,1.744-1.358,2.704-1.874c0.248,0.673,0.522,1.319,0.829,1.92c0.621,1.228,1.326,2.233,2.103,3.011
		C9.959,29.433,8.039,28.376,6.433,26.971L6.433,26.971z M15.288,30.341c-1.496-0.333-2.906-1.711-4.042-3.958
		c-0.301-0.594-0.568-1.228-0.81-1.9c1.528-0.634,3.167-1.006,4.852-1.084V30.341z M9.998,23.112
		c-0.542-1.946-0.856-4.121-0.908-6.393h6.198v5.244C13.453,22.041,11.67,22.433,9.998,23.112L9.998,23.112z M16.725,30.341v-6.942
		c1.685,0.085,3.324,0.451,4.852,1.084c-0.242,0.672-0.51,1.306-0.81,1.9C19.631,28.63,18.22,30.008,16.725,30.341L16.725,30.341z
		 M19.944,30.021c0.777-0.771,1.482-1.783,2.103-3.011c0.307-0.601,0.581-1.247,0.829-1.92c0.96,0.516,1.868,1.143,2.704,1.874
		C23.974,28.376,22.054,29.433,19.944,30.021L19.944,30.021z M26.619,25.972c-1.005-0.895-2.109-1.652-3.285-2.26
		c0.614-2.122,0.967-4.513,1.025-6.994h6.204C30.38,20.291,28.917,23.523,26.619,25.972L26.619,25.972z M26.619,25.972"/>
</g>
</svg>
